<svg xmlns="http://www.w3.org/2000/svg" viewBox="0 0 32 44"><title>tree@1x</title><g id="Layer_2" data-name="Layer 2"><g id="Miscellaneous"><g id="Tree_2x.png" data-name="Tree@2x.png"><path d="M31.84,34.49h0L26.77,26H29a1,1,0,0,0,1-1,1,1,0,0,0-.21-.59h0L25,18h2a1,1,0,0,0,1-1,1,1,0,0,0-.34-.74h0L22.19,10H24a1,1,0,0,0,.71-1.71l-8-8a1,1,0,0,0-1.41,0l-8,8A1,1,0,0,0,8,10H9.81L4.34,16.25h0A1,1,0,0,0,4,17a1,1,0,0,0,1,1H7L2.2,24.4h0A1,1,0,0,0,2,25a1,1,0,0,0,1,1H5.23L.14,34.49h0A1,1,0,0,0,0,35a1,1,0,0,0,1,1H12v7a1,1,0,0,0,1,1h6a1,1,0,0,0,1-1V36H31a1,1,0,0,0,1-1A1,1,0,0,0,31.84,34.49ZM18,42H14V36h4ZM2.77,34l5.09-8.49h0A1,1,0,0,0,8,25a1,1,0,0,0-1-1H5l4.8-6.4h0A1,1,0,0,0,10,17a1,1,0,0,0-1-1H7.19l5.47-6.25h0A1,1,0,0,0,13,9a1,1,0,0,0-1-1H10.41L16,2.41,21.59,8H20a1,1,0,0,0-1,1,1,1,0,0,0,.34.74h0L24.81,16H23a1,1,0,0,0-1,1,1,1,0,0,0,.21.59h0L27,24H25a1,1,0,0,0-1,1,1,1,0,0,0,.16.51h0L29.23,34Z"/></g></g></g></svg>